<svg width="75" height="67" viewBox="0 0 75 67" fill="none" xmlns="http://www.w3.org/2000/svg">
<path d="M69 12.1818H9C8.20435 12.1818 7.44129 11.861 6.87868 11.2898C6.31607 10.7187 6 9.94407 6 9.13636C6 8.32866 6.31607 7.55404 6.87868 6.9829C7.44129 6.41177 8.20435 6.09091 9 6.09091H60C60.7957 6.09091 61.5587 5.77005 62.1213 5.19892C62.6839 4.62778 63 3.85316 63 3.04545C63 2.23775 62.6839 1.46313 62.1213 0.891994C61.5587 0.32086 60.7957 0 60 0H9C6.61609 0.0100209 4.33264 0.975818 2.64695 2.68705C0.961253 4.39828 0.00987138 6.71634 0 9.13636V57.8636C0.00987138 60.2837 0.961253 62.6017 2.64695 64.313C4.33264 66.0242 6.61609 66.99 9 67H69C70.5913 67 72.1174 66.3583 73.2426 65.216C74.3679 64.0737 75 62.5245 75 60.9091V18.2727C75 16.6573 74.3679 15.1081 73.2426 13.9658C72.1174 12.8235 70.5913 12.1818 69 12.1818ZM55.5 44.1591C54.61 44.1591 53.74 43.8912 52.9999 43.3892C52.2599 42.8873 51.6831 42.1738 51.3425 41.3391C51.0019 40.5043 50.9128 39.5858 51.0865 38.6997C51.2601 37.8136 51.6887 36.9996 52.318 36.3607C52.9474 35.7218 53.7492 35.2868 54.6221 35.1105C55.495 34.9342 56.3998 35.0247 57.2221 35.3705C58.0443 35.7162 58.7471 36.3017 59.2416 37.053C59.7361 37.8042 60 38.6874 60 39.5909C60 40.8025 59.5259 41.9644 58.682 42.8211C57.8381 43.6778 56.6935 44.1591 55.5 44.1591Z" fill="url(#paint0_linear_7_830)"/>
<defs>
<linearGradient id="paint0_linear_7_830" x1="37.5" y1="0" x2="37.5" y2="67" gradientUnits="userSpaceOnUse">
<stop stop-color="#575DFB"/>
<stop offset="1" stop-color="#408782"/>
</linearGradient>
</defs>
</svg>
